<svg width="19" height="15" viewBox="0 0 19 15" fill="none" xmlns="http://www.w3.org/2000/svg">
<path d="M18.3359 13.6289L1.98438 0.859375C1.90234 0.804688 1.79297 0.777344 1.71094 0.777344C1.54688 0.777344 1.4375 0.832031 1.35547 0.914062L1.08203 1.26953C1.02734 1.35156 0.972656 1.43359 0.972656 1.54297C0.972656 1.67969 1.05469 1.81641 1.16406 1.87109L17.5156 14.668C17.5703 14.7227 17.6797 14.75 17.7617 14.75C17.9258 14.75 18.0352 14.6953 18.1172 14.5859L18.3906 14.2578C18.4453 14.1758 18.5 14.0938 18.5 13.9844C18.5 13.8477 18.418 13.7109 18.3359 13.6289ZM9.09375 4.76953L12.7852 7.64062C12.7305 6 11.3906 4.6875 9.75 4.6875C9.53125 4.71484 9.3125 4.71484 9.09375 4.76953ZM10.3789 10.7578L6.6875 7.88672C6.74219 9.52734 8.08203 10.8125 9.75 10.8125C9.94141 10.8125 10.1602 10.8125 10.3789 10.7578ZM9.75 3.8125C12.4297 3.8125 14.918 5.31641 16.2305 7.75C15.9023 8.37891 15.5195 8.92578 15.0273 9.41797L16.0664 10.2109C16.6406 9.60938 17.1328 8.92578 17.5156 8.16016C17.5703 8.05078 17.625 7.91406 17.625 7.77734C17.625 7.61328 17.5703 7.47656 17.5156 7.36719C16.0391 4.46875 13.0859 2.5 9.75 2.5C8.73828 2.5 7.78125 2.69141 6.87891 3.01953L8.13672 4.03125C8.65625 3.89453 9.20312 3.8125 9.75 3.8125ZM9.75 11.6875C7.04297 11.6875 4.55469 10.1836 3.24219 7.75C3.57031 7.14844 3.95312 6.60156 4.44531 6.10938L3.40625 5.31641C2.83203 5.91797 2.33984 6.60156 1.95703 7.36719C1.90234 7.47656 1.875 7.61328 1.875 7.75C1.875 7.91406 1.90234 8.05078 1.95703 8.16016C3.43359 11.0586 6.38672 13 9.75 13C10.7344 13 11.6914 12.8086 12.5938 12.5078L11.3359 11.4961C10.8164 11.6328 10.2695 11.6875 9.75 11.6875Z" fill="black"/>
</svg>
